<?xml version="1.0" encoding="utf-8"?>
<!-- Generator: Adobe Illustrator 22.1.0, SVG Export Plug-In . SVG Version: 6.00 Build 0)  -->
<svg version="1.1" id="Layer_1" xmlns="http://www.w3.org/2000/svg" xmlns:xlink="http://www.w3.org/1999/xlink" x="0px" y="0px"
	 viewBox="0 0 450 270" style="enable-background:new 0 0 450 270;" xml:space="preserve">
<style type="text/css">
	.st0{fill:#E5FFFF;}
</style>
<g>
	<path class="st0" d="M0,140.7c2.6,0.4,4.9,1.6,7.1,2.9c10,6.1,16.3,14.9,18.7,26.4c0.2,1.1,0.7,2.2,1,3.3c0.1,0.2,0.3,0.2,0.6,0.5
		c-0.5-2.1-0.9-4.1-1.3-6c-1.1-5.8-1.9-11.7-2.2-17.6c-0.1-2.4,0-4.9-0.4-7.3c-0.2-1.6-1.1-3.1-1.8-4.6c-0.1-0.1-0.4-0.2-0.6-0.2
		c-4.1-0.7-6.9-3.2-9-6.6c-3.1-4.8-4.8-10.3-6-15.8c-1.1-5-1.7-10.1-1.3-15.2C5,99.7,5.1,99,5.2,98c0.4,0.3,0.7,0.4,1,0.7
		c9.2,7,14.7,16.2,16.1,27.7c0.4,3.4,0.1,6.9,0.3,10.4c0,0.8,0.4,1.6,0.6,2.5c0.2,0,0.3,0,0.5-0.1c0-1,0-2.1,0-3.1
		c0.1-8.9,0.9-17.7,2.3-26.4c0.1-0.4-0.1-0.7-0.2-1.1c-0.1-0.3-0.2-0.6-0.2-1c-0.3-1.9-0.8-3.4-2.8-4.6c-3.3-1.9-4.9-5.3-5.8-9
		c-1.4-5.6-1.7-11.3-1.4-17c0.2-4.4,0.7-8.8,2-13c0.2-0.7,0.5-1.4,0.9-2.4c1.2,1.5,2.3,2.8,3.2,4.2c4.2,6.1,6.4,12.8,6.7,20.2
		c0.2,5.5-0.6,10.9-2,16.2c-0.4,1.4-0.2,2.6,0.3,4.2c0.3-1.4,0.5-2.5,0.8-3.6c1.8-8.1,4.3-16,7.4-23.8c0.4-0.9,0.1-2,0.3-3
		c0.4-1.8-0.3-2.9-1.5-4.2c-2.7-2.8-3.8-6.4-3.9-10.2c-0.3-9.8,1.7-19.2,6-28.1c0.5-1,1.2-2,1.9-3.1c1.9,3.5,3.2,6.9,3.9,10.5
		c2.1,10.9,0.8,21.4-4.7,31.2c-0.5,0.8-0.4,1.9-0.6,2.9c0.1,0,0.2,0.1,0.3,0.1c0.2-0.3,0.3-0.6,0.5-0.9c3.8-8.4,8.3-16.4,13.7-23.9
		c0.9-1.2,1.2-2.5,1.5-3.9c0.3-1.5,0-2.7-1-4.1c-2.2-3-2.5-6.6-2.1-10.2C50,21.7,54.7,12.9,62.3,5.6C62.6,5.3,63,5,63.6,4.5
		c0.2,1.3,0.5,2.5,0.6,3.6c1,13.2-1.2,25.4-10.5,35.6c-0.7,0.7-0.8,2-1.1,3.1c0.1,0.1,0.2,0.1,0.3,0.2c0.2-0.2,0.4-0.4,0.5-0.6
		c5.1-6.8,10.8-13.2,17.1-18.9c1.6-1.5,2.4-2.8,2.5-5.1c0.1-4.1,2.6-7.1,5.5-9.8c3.3-3.1,7.4-4.9,11.6-6.4c2.8-1,5.5-2,8.6-3.1
		c-0.8,2.3-1.5,4.4-2.4,6.5c-2.6,5.7-6.4,10.5-11.9,13.6c-3.1,1.8-6.4,2.8-10,2.9c-0.4,0-0.9,0.1-1.2,0.4
		c-5.9,4.7-10.9,10.4-15.7,16.2c1.7,0.4,2.4,0.1,3-1.3c1.6-3.7,4.7-5.8,8.4-7.1c4-1.4,8-1.1,12.1-0.5c2.7,0.4,5.4,0.9,8.1,1.3
		c0.3,0,0.5,0.1,0.9,0.2c-1.7,2.5-3.8,4.5-6.2,6.3c-4.3,3.1-9.1,4.7-14.4,4.6c-2.9-0.1-5.7-0.7-8.2-2.2c-0.7-0.4-1.3-0.6-2.1-0.3
		c-0.6,0.2-1.3,0.2-2,0.3c-0.3,0.1-0.6,0.2-0.8,0.4c-5.3,7-10,14.3-13.9,22.2v0.1c1.7,0.1,2.5-0.4,2.8-1.9c1.2-5.3,4.8-8.4,9.7-10.1
		c3.3-1.2,6.8-1.6,10.3-1.8c2.6-0.2,5.2-0.3,7.8-0.5h1.4c-0.5,0.8-0.9,1.5-1.4,2.2c-4.4,6.5-10,11.3-17.9,13c-3,0.6-5.9,0.5-8.8-0.5
		c-0.8-0.3-1.4-0.3-2.1,0.2c-0.3,0.2-0.7,0.4-1.1,0.5c-1.3,0.1-1.8,1-2.3,2.1C36.5,79,33.1,88.3,30.6,98v0.2c1.8-0.5,2.2-1,2.2-2.8
		c0.1-5.9,2.8-10.2,7.4-13.6c4-3,8.6-4.7,13.2-6.5c2.1-0.8,4.2-1.6,6.4-2.5c0,0.3,0,0.5-0.1,0.7c-2.7,8.9-7.3,16.3-15.4,21.3
		c-3.2,1.9-6.6,2.9-10.3,2.8c-0.4,0-0.9,0.2-1.3,0.5c-0.4,0.2-0.7,0.7-1.1,0.9c-1.4,0.7-1.9,1.9-2.1,3.3c-1,6.2-2.2,12.4-3,18.6
		c-0.6,4.3-0.6,8.7-0.9,13.1v0.9c0.7-0.8,1.4-1.3,1.7-1.9c0.2-0.6,0-1.4-0.1-2.1c-0.7-5.1,0.5-9.8,3.1-14.2c2.8-4.7,6.8-8.2,11-11.5
		c2.5-2,5.1-4,7.9-6.2c-0.2,2-0.3,3.7-0.5,5.5c-1,7.1-3.3,13.6-7.7,19.3c-3.2,4.2-7,7.6-12.2,9.1c-0.4,0.1-0.7,0.5-1,0.8
		c-0.7,0.9-1.3,1.7-1.9,2.6c-0.2,0.3-0.3,0.6-0.3,0.9c-0.1,11.1,1.1,22,3.4,32.8c0,0.1,0.1,0.1,0.3,0.3c0.4-1,0.8-1.8,1.1-2.7
		c0.1-0.2,0-0.4-0.1-0.6c-1.9-2.8-2.1-5.9-1.8-9.1c0.4-5.2,2.5-9.8,5.4-14c3.6-5.2,7.4-10.2,11.2-15.3h0.3c0.2,1.5,0.5,3,0.6,4.6
		c0.6,9.1-1.1,17.6-5.8,25.5c-2,3.4-4.5,6.2-7.7,8.4c-0.5,0.3-0.8,0.9-1.1,1.5c-0.4,0.7-0.5,1.6-1,2.3c-0.7,1-0.6,2-0.3,3.1
		c2.7,10.5,6.4,20.7,11.5,30.3c0.1,0.2,0.3,0.5,0.6,0.9c0.1-0.8,0.2-1.4,0.3-1.9c0.1-0.7-0.1-1.2-0.6-1.8c-2-1.9-2.7-4.5-3.4-7.1
		c-1.2-4.7-0.8-9.4,0.6-13.9c1.9-5.9,4.2-11.7,6.3-17.6c0.3-0.8,0.6-1.6,1-2.7c0.6,1.5,1.2,2.7,1.7,4c3.6,9.9,3.9,19.9,0.3,29.8
		c-1,2.6-2.7,5-4,7.4c-0.3,0.6-0.6,1.3-0.8,2c-0.1,0.5-0.1,1.1-0.3,1.5c-0.6,1.4-0.1,2.6,0.6,3.8c4.6,7.9,10,15.2,16.4,21.8
		c0.4,0.4,0.6,0.8,1.1,1.4c0.5-2.2,0.2-2.9-1.2-3.8c-2.9-1.9-4.7-4.7-6-7.8c-1.7-4.1-1.9-8.4-1.6-12.6c0.5-6.4,1.3-12.8,1.9-19.2
		c0-0.2,0.1-0.4,0.3-1c1.6,2.2,3.1,4.2,4.5,6.3c3.6,5.7,5.4,11.9,5.9,18.6c0.4,5.4-0.3,10.5-2.3,15.5c-0.3,0.9-0.1,1.9-0.2,2.9
		c-0.1,1.7,0.7,2.9,1.9,4c6.9,6.2,14.5,11.4,22.9,15.3c0.2,0.1,0.5,0.2,0.7,0.3c0.1,0,0.1,0,0.4,0.1c-0.1-0.6-0.3-1.2-0.4-1.7
		c-0.2-0.9-1-0.4-1.5-0.6c-2-0.4-3.6-1.6-5.2-2.8c-3.6-2.9-5.7-6.7-6.7-11.1c-1.2-5-2-10.1-3-15.1c-0.3-1.8-0.6-3.5-0.9-5.6
		c0.5,0.3,1,0.4,1.4,0.6c11.7,6.2,18.2,19.6,16.8,31.9c-0.2,1.5,0.4,3.2,0.7,4.7c0.1,0.3,0.6,0.6,1,0.8c6.3,2.6,12.7,4.6,19.4,5.7
		c1.5,0.3,2.1,1,1.9,2.8c-1.6-0.3-3.2-0.5-4.8-0.8c-5-1-9.9-2.4-14.7-4.2c-1.6-0.6-3.1,0.3-4.7,0.5c-0.1,0-0.2,0.3-0.3,0.4
		c-2.6,5.1-7,7.3-12.3,8.3c-1.3,0.3-2.7,0.4-4,0.6c-1.7,0-3.5,0-5.2,0c-0.4-0.1-0.7-0.2-1.1-0.2c-4.7-0.6-9.2-1.5-13.4-3.8
		c-1.2-0.6-2.2-1.5-3.4-2.3c0.4-0.3,0.5-0.5,0.7-0.6c4.2-3.5,8.8-6.3,14.1-7.8c4.4-1.2,8.8-1.7,13.3-0.8c3.7,0.8,7.1,2.3,10.4,4.3
		c0.9,0.5,1.6,0.5,2.6,0.1c-1.8-0.9-3.5-1.6-5.1-2.5c-6.9-3.5-13.2-7.9-19-13.1c-1.3-1.1-2.9-0.7-4.3-1c-0.1,0-0.4,0.2-0.5,0.4
		c-2.9,3.2-6.6,4.5-10.7,4.3c-9.2-0.4-17-4.3-23.8-10.2c-1.2-1.1-2.1-2.5-3.4-4c2.3-0.8,4.1-1.5,6-2c7-1.9,14-1.8,20.8,1
		c4.4,1.8,7.9,5,11,8.5c0.6,0.7,1.3,0.9,2.3,0.9c-0.2-0.2-0.3-0.4-0.4-0.5c-7.1-6.8-13.1-14.5-18.2-22.8c-0.1-0.2-0.2-0.4-0.4-0.5
		c-1.2-0.8-2.4-1.5-3.5-2.2c-4.2,2.3-8.4,1.9-12.7,0.4c-3.4-1.2-6.1-3.3-8.7-5.8C14,200,10.3,195.5,8,189.9c-0.4-1.1-0.6-2.2-1-3.4
		c9.2-0.6,16.9,2.3,23.5,8.2c4,3.6,6.8,8.1,9.2,12.9c0.4,0.9,1.1,1.3,2.1,1.6c-0.2-0.4-0.4-0.7-0.5-1c-5-8.9-9-18.2-12-27.9
		c-0.7-2.3-1.8-4.3-3.3-6.2c-0.2-0.3-0.8-0.4-1.2-0.5c-1.2-0.1-2.3,0.1-3.5-0.1c-3.3-0.5-5.9-2.3-8.2-4.6c-6-6.1-9.6-13.6-12.2-21.7
		c-0.4-1.3-0.6-2.7-0.9-4C0,142.3,0,141.5,0,140.7L0,140.7z"/>
	<path class="st0" d="M449.7,141.1c-2.6,0.4-4.9,1.6-7.1,2.9c-10,6.1-16.3,14.9-18.7,26.4c-0.2,1.1-0.7,2.2-1,3.3
		c-0.1,0.2-0.3,0.2-0.6,0.5c0.5-2.1,0.9-4.1,1.3-6c1.1-5.8,1.9-11.7,2.2-17.6c0.1-2.4,0-4.9,0.4-7.3c0.2-1.6,1.1-3.1,1.8-4.6
		c0.1-0.1,0.4-0.2,0.6-0.2c4.1-0.7,6.9-3.2,9-6.6c3.1-4.8,4.8-10.3,6-15.8c1.1-5,1.7-10.1,1.3-15.2c-0.1-0.7-0.2-1.5-0.3-2.4
		c-0.4,0.3-0.7,0.4-1,0.7c-9.2,7-14.7,16.2-16.1,27.7c-0.4,3.4-0.1,6.9-0.3,10.4c0,0.8-0.4,1.6-0.6,2.5c-0.2,0-0.3,0-0.5-0.1
		c0-1,0-2.1,0-3.1c-0.1-8.9-0.9-17.7-2.3-26.4c-0.1-0.4,0.1-0.7,0.2-1.1c0.1-0.3,0.2-0.6,0.2-1c0.3-1.9,0.8-3.4,2.8-4.6
		c3.3-1.9,4.9-5.3,5.8-9c1.4-5.6,1.7-11.3,1.4-17c-0.2-4.4-0.7-8.8-2-13c-0.2-0.7-0.5-1.4-0.9-2.4c-1.2,1.5-2.3,2.8-3.2,4.2
		c-4.2,6.1-6.4,12.8-6.7,20.2c-0.2,5.5,0.6,10.9,2,16.2c0.4,1.4,0.2,2.6-0.3,4.2c-0.3-1.4-0.5-2.5-0.8-3.6c-1.8-8.1-4.3-16-7.4-23.8
		c-0.4-0.9-0.1-2-0.3-3c-0.4-1.8,0.3-2.9,1.5-4.2c2.7-2.8,3.8-6.4,3.9-10.2c0.3-9.8-1.7-19.2-6-28.1c-0.5-1-1.2-2-1.9-3.1
		c-1.9,3.5-3.2,6.9-3.9,10.5c-2.1,10.9-0.8,21.4,4.7,31.2c0.5,0.8,0.4,1.9,0.6,2.9c-0.1,0-0.2,0.1-0.3,0.1c-0.2-0.3-0.3-0.6-0.5-0.9
		c-3.8-8.4-8.3-16.4-13.7-23.9c-0.9-1.2-1.2-2.5-1.5-3.9c-0.3-1.5,0-2.7,1-4.1c2.2-3,2.5-6.6,2.1-10.2C399.7,22.1,395,13.3,387.4,6
		c-0.3-0.3-0.7-0.6-1.3-1.1c-0.2,1.3-0.5,2.5-0.6,3.6c-1,13.2,1.2,25.4,10.5,35.6c0.7,0.7,0.8,2,1.1,3.1c-0.1,0.1-0.2,0.1-0.3,0.2
		c-0.2-0.2-0.4-0.4-0.5-0.6c-5.1-6.8-10.8-13.2-17.1-18.9c-1.6-1.5-2.4-2.8-2.5-5.1c-0.1-4.1-2.6-7.1-5.5-9.8
		c-3.3-3.1-7.4-4.9-11.6-6.4c-2.8-1-5.5-2-8.6-3.1c0.8,2.3,1.5,4.4,2.4,6.5c2.6,5.7,6.4,10.5,11.9,13.6c3.1,1.8,6.4,2.8,10,2.9
		c0.4,0,0.9,0.1,1.2,0.4c5.9,4.7,10.9,10.4,15.7,16.2c-1.7,0.4-2.4,0.1-3-1.3c-1.6-3.7-4.7-5.8-8.4-7.1c-4-1.4-8-1.1-12.1-0.5
		c-2.7,0.4-5.4,0.9-8.1,1.3c-0.3,0-0.5,0.1-0.9,0.2c1.7,2.5,3.8,4.5,6.2,6.3c4.3,3.1,9.1,4.7,14.4,4.6c2.9-0.1,5.7-0.7,8.2-2.2
		c0.7-0.4,1.3-0.6,2.1-0.3c0.6,0.2,1.3,0.2,2,0.3c0.3,0.1,0.6,0.2,0.8,0.4c5.3,7,10,14.3,13.9,22.2v0.1c-1.7,0.1-2.5-0.4-2.8-1.9
		c-1.2-5.3-4.8-8.4-9.7-10.1c-3.3-1.2-6.8-1.6-10.3-1.8c-2.6-0.2-5.2-0.3-7.8-0.5c-0.4,0-0.8,0-1.4,0c0.5,0.8,0.9,1.5,1.4,2.2
		c4.4,6.5,10,11.3,17.9,13c3,0.6,5.9,0.5,8.8-0.5c0.8-0.3,1.4-0.3,2.1,0.2c0.3,0.2,0.7,0.4,1.1,0.5c1.3,0.1,1.8,1,2.3,2.1
		c4.3,9.1,7.7,18.4,10.2,28.1v0.2c-1.8-0.5-2.2-1-2.2-2.8c-0.1-5.9-2.8-10.2-7.4-13.6c-4-3-8.6-4.7-13.2-6.5
		c-2.1-0.8-4.2-1.6-6.4-2.5c0,0.3,0,0.5,0.1,0.7c2.7,8.9,7.3,16.3,15.4,21.3c3.2,1.9,6.6,2.9,10.3,2.8c0.4,0,0.9,0.2,1.3,0.5
		c0.4,0.2,0.7,0.7,1.1,0.9c1.4,0.7,1.9,1.9,2.1,3.3c1,6.2,2.2,12.4,3,18.6c0.6,4.3,0.6,8.7,0.9,13.1v0.9c-0.7-0.8-1.4-1.3-1.7-1.9
		c-0.2-0.6,0-1.4,0.1-2.1c0.7-5.1-0.5-9.8-3.1-14.2c-2.8-4.7-6.8-8.2-11-11.5c-2.5-2-5.1-4-7.9-6.2c0.2,2,0.3,3.7,0.5,5.5
		c1,7.1,3.3,13.6,7.7,19.3c3.2,4.2,7,7.6,12.2,9.1c0.4,0.1,0.7,0.5,1,0.8c0.7,0.9,1.3,1.7,1.9,2.6c0.2,0.3,0.3,0.6,0.3,0.9
		c0.1,11.1-1.1,22-3.4,32.8c0,0.1-0.1,0.1-0.3,0.3c-0.4-1-0.8-1.8-1.1-2.7c-0.1-0.2,0-0.4,0.1-0.6c1.9-2.8,2.1-5.9,1.8-9.1
		c-0.4-5.2-2.5-9.8-5.4-14c-3.6-5.2-7.4-10.2-11.2-15.3c-0.1,0-0.2,0-0.3,0c-0.2,1.5-0.5,3-0.6,4.6c-0.6,9.1,1.1,17.6,5.8,25.5
		c2,3.4,4.5,6.2,7.7,8.4c0.5,0.3,0.8,0.9,1.1,1.5c0.4,0.7,0.5,1.6,1,2.3c0.7,1,0.6,2,0.3,3.1c-2.7,10.5-6.4,20.7-11.5,30.3
		c-0.1,0.2-0.3,0.5-0.6,0.9c-0.1-0.8-0.2-1.4-0.3-1.9c-0.1-0.7,0.1-1.2,0.6-1.8c2-1.9,2.7-4.5,3.4-7.1c1.2-4.7,0.8-9.4-0.6-13.9
		c-1.9-5.9-4.2-11.7-6.3-17.6c-0.3-0.8-0.6-1.6-1-2.7c-0.6,1.5-1.2,2.7-1.7,4c-3.6,9.9-3.9,19.9-0.3,29.8c1,2.6,2.7,5,4,7.4
		c0.3,0.6,0.6,1.3,0.8,2c0.1,0.5,0.1,1.1,0.3,1.5c0.6,1.4,0.1,2.6-0.6,3.8c-4.6,7.9-10,15.2-16.4,21.8c-0.4,0.4-0.6,0.8-1.1,1.4
		c-0.5-2.2-0.2-2.9,1.2-3.8c2.9-1.9,4.7-4.7,6-7.8c1.7-4.1,1.9-8.4,1.6-12.6c-0.5-6.4-1.3-12.8-1.9-19.2c0-0.2-0.1-0.4-0.3-1
		c-1.6,2.2-3.1,4.2-4.5,6.3c-3.6,5.7-5.4,11.9-5.9,18.6c-0.4,5.4,0.3,10.5,2.3,15.5c0.3,0.9,0.1,1.9,0.2,2.9c0.1,1.7-0.7,2.9-1.9,4
		c-6.9,6.2-14.5,11.4-22.9,15.3c-0.2,0.1-0.5,0.2-0.7,0.3c-0.1,0-0.1,0-0.4,0.1c0.1-0.6,0.3-1.2,0.4-1.7c0.2-0.9,1-0.4,1.5-0.6
		c2-0.4,3.6-1.6,5.2-2.8c3.6-2.9,5.7-6.7,6.7-11.1c1.2-5,2-10.1,3-15.1c0.3-1.8,0.6-3.5,0.9-5.6c-0.5,0.3-1,0.4-1.4,0.6
		c-11.7,6.2-18.2,19.6-16.8,31.9c0.2,1.5-0.4,3.2-0.7,4.7c-0.1,0.3-0.6,0.6-1,0.8c-6.3,2.6-12.7,4.6-19.4,5.7
		c-1.5,0.3-2.1,1-1.9,2.8c1.6-0.3,3.2-0.5,4.8-0.8c5-1,9.9-2.4,14.7-4.2c1.6-0.6,3.1,0.3,4.7,0.5c0.1,0,0.2,0.3,0.3,0.4
		c2.6,5.1,7,7.3,12.3,8.3c1.3,0.3,2.7,0.4,4,0.6h5.2c0.4-0.1,0.7-0.2,1.1-0.2c4.7-0.6,9.2-1.5,13.4-3.8c1.2-0.6,2.2-1.5,3.4-2.3
		c-0.4-0.3-0.5-0.5-0.7-0.6c-4.2-3.5-8.8-6.3-14.1-7.8c-4.4-1.2-8.8-1.7-13.3-0.8c-3.7,0.8-7.1,2.3-10.4,4.3
		c-0.9,0.5-1.6,0.5-2.6,0.1c1.8-0.9,3.5-1.6,5.1-2.5c6.9-3.5,13.2-7.9,19-13.1c1.3-1.1,2.9-0.7,4.3-1c0.1,0,0.4,0.2,0.5,0.4
		c2.9,3.2,6.6,4.5,10.7,4.3c9.2-0.4,17-4.3,23.8-10.2c1.2-1.1,2.1-2.5,3.4-4c-2.3-0.8-4.1-1.5-6-2c-7-1.9-14-1.8-20.8,1
		c-4.4,1.8-7.9,5-11,8.5c-0.6,0.7-1.3,0.9-2.3,0.9c0.2-0.2,0.3-0.4,0.4-0.5c7.1-6.8,13.1-14.5,18.2-22.8c0.1-0.2,0.2-0.4,0.4-0.5
		c1.2-0.8,2.4-1.5,3.5-2.2c4.2,2.3,8.4,1.9,12.7,0.4c3.4-1.2,6.1-3.3,8.7-5.8c4.3-4.1,8.1-8.7,10.3-14.3c0.4-1.1,0.6-2.2,1-3.4
		c-9.2-0.6-16.9,2.3-23.5,8.2c-4,3.6-6.8,8.1-9.2,12.9c-0.4,0.9-1.1,1.3-2.1,1.6c0.2-0.4,0.4-0.7,0.5-1c5-8.9,9-18.2,12-27.9
		c0.7-2.3,1.8-4.3,3.3-6.2c0.2-0.3,0.8-0.4,1.2-0.5c1.2-0.1,2.3,0.1,3.5-0.1c3.3-0.5,5.9-2.3,8.2-4.6c6-6.1,9.6-13.6,12.2-21.7
		c0.4-1.3,0.6-2.7,0.9-4C449.7,142.7,449.7,141.9,449.7,141.1L449.7,141.1z"/>
</g>
</svg>
